# xmcd
#
# Track frame offsets:
# 150
# 8580
# 15250
# 25117
# 34487
# 44517
# 54567
# 61675
# 66907
# 75215
# 85732
# 92062
# 100505
# 110830
# 120342
# 125190
# 134227
# 144882
#
# Disc length: 2044 seconds
#
# Revision: 0
# Processed by: cddbd v1.5.1PL0 Copyright (c) Steve Scherf et al.
# Submitted via: Audion 3.0.2 (http://www.panic.com/audion/)
#
DISCID=e407fa12
DTITLE=b - b
DYEAR=1900
DGENRE=
TTITLE0=11
TTITLE1=1
TTITLE2=1
TTITLE3=1
TTITLE4=1
TTITLE5=1
TTITLE6=1
TTITLE7=1
TTITLE8=1
TTITLE9=1
TTITLE10=1
TTITLE11=1
TTITLE12=1
TTITLE13=1
TTITLE14=1
TTITLE15=1
TTITLE16=1
TTITLE17=1
EXTD=
EXTT0=
EXTT1=
EXTT2=
EXTT3=
EXTT4=
EXTT5=
EXTT6=
EXTT7=
EXTT8=
EXTT9=
EXTT10=
EXTT11=
EXTT12=
EXTT13=
EXTT14=
EXTT15=
EXTT16=
EXTT17=
PLAYORDER=
